<svg xmlns="http://www.w3.org/2000/svg" viewBox="0 0 300 300">
  <defs>
    <path id="curveTop" d="M 50,150 A 100,100 0 0,1 250,150" />
    <path id="curveBottom" d="M 50,150 A 100,100 0 0,0 250,150" />
  </defs>
  
  <!-- Outer Circle/Ring approximation -->
  <circle cx="150" cy="150" r="90" fill="none" stroke="#00838F" stroke-width="15" stroke-opacity="0.2" />
  <circle cx="150" cy="150" r="75" fill="none" stroke="#0277BD" stroke-width="2" />

  <!-- Hands Shaking Icon (Simplified) -->
  <g transform="translate(100, 100) scale(4)">
    <path fill="#0277BD" d="M12.9,7.1c-0.6-0.6-1.5-0.6-2.1,0l-1.4,1.4c-0.3,0.3-0.3,0.8,0,1.1l0.7,0.7l-4.2,4.2c-0.6,0.6-0.6,1.5,0,2.1l2.8,2.8c0.6,0.6,1.5,0.6,2.1,0l4.2-4.2l0.7,0.7c0.3,0.3,0.8,0.3,1.1,0l1.4-1.4C18.5,14.1,18.5,13.2,17.9,12.6L12.9,7.1z M8.6,17.3l-2.1-2.1l4.2-4.2l2.1,2.1L8.6,17.3z"/> 
    <path fill="#00838F" d="M12.2,9.9L12.2,9.9c-0.3-0.3-0.8-0.3-1.1,0l-0.7,0.7L6.2,6.4c-0.6-0.6-1.5-0.6-2.1,0L1.3,9.2c-0.6,0.6-0.6,1.5,0,2.1l4.2,4.2l-0.7,0.7c-0.3,0.3-0.3,0.8,0,1.1l1.4,1.4c0.6,0.6,1.5,0.6,2.1,0l5-5c0.6-0.6,0.6-1.5,0-2.1l-1.4-1.4C13,9.6,12.5,9.6,12.2,9.9z"/>
  </g>
  
  <!-- Text -->
  <text width="300" font-family="Arial, sans-serif" font-size="28" font-weight="bold" fill="#00334e" text-anchor="middle">
    <textPath href="#curveTop" startOffset="50%">
      JANSAHAYAK
    </textPath>
  </text>
  
  <text width="300" font-family="Arial, sans-serif" font-size="16" font-weight="bold" fill="#00334e" letter-spacing="4" text-anchor="middle">
    <textPath href="#curveBottom" startOffset="50%" side="left">
       YOUR TRUSTED AID
    </textPath>
  </text>
</svg>
